<svg width="20" height="20" viewBox="0 0 20 20" fill="none" xmlns="http://www.w3.org/2000/svg">
<path fill-rule="evenodd" clip-rule="evenodd" d="M3.21304 5.79998C3.22804 6.55898 2.81504 7.58498 2.27804 8.12098C2.03107 8.36782 1.83516 8.6609 1.70149 8.98348C1.56782 9.30605 1.49902 9.65181 1.49902 10.001C1.49902 10.3502 1.56782 10.6959 1.70149 11.0185C1.83516 11.3411 2.03107 11.6341 2.27804 11.881C2.80804 12.409 3.19804 13.325 3.21304 14.073C3.22704 14.735 3.48604 15.393 3.99104 15.897C4.45685 16.364 5.08019 16.6404 5.73904 16.672C6.53004 16.712 7.56604 17.172 8.12604 17.732C8.37286 17.9788 8.66588 18.1746 8.98836 18.3082C9.31085 18.4418 9.65649 18.5105 10.0055 18.5105C10.3546 18.5105 10.7002 18.4418 11.0227 18.3082C11.3452 18.1746 11.6382 17.9788 11.885 17.732C12.445 17.172 13.481 16.712 14.272 16.672C14.9309 16.6404 15.5542 16.364 16.02 15.897C16.5058 15.4119 16.7843 14.7573 16.797 14.071C16.812 13.325 17.197 12.415 17.726 11.887C18.2262 11.3884 18.5079 10.7115 18.509 10.0052C18.5101 9.29897 18.2306 8.62119 17.732 8.12098C17.196 7.58598 16.782 6.55898 16.798 5.80098C16.8056 5.4431 16.7405 5.0874 16.6068 4.75535C16.4731 4.42329 16.2735 4.12177 16.02 3.86898C15.7573 3.60567 15.4422 3.40059 15.095 3.26707C14.7479 3.13355 14.3765 3.07458 14.005 3.09398C13.291 3.12998 12.39 2.78398 11.885 2.27798C11.6382 2.03101 11.3451 1.8351 11.0225 1.70143C10.7 1.56776 10.3542 1.49896 10.005 1.49896C9.65587 1.49896 9.31012 1.56776 8.98754 1.70143C8.66496 1.8351 8.37188 2.03101 8.12504 2.27798C7.62104 2.78298 6.71904 3.12998 6.00504 3.09398C5.63377 3.07472 5.26259 3.13376 4.91562 3.26728C4.56864 3.4008 4.25363 3.6058 3.99104 3.86898C3.73772 4.12166 3.53819 4.42301 3.40448 4.75488C3.27077 5.08675 3.20565 5.44227 3.21304 5.79998ZM13.041 6.62598C13.1559 6.68972 13.2571 6.77546 13.3388 6.87831C13.4205 6.98115 13.4812 7.0991 13.5173 7.22539C13.5534 7.35169 13.5643 7.48386 13.5493 7.61437C13.5344 7.74487 13.4938 7.87115 13.43 7.98598L10.662 12.968C10.5898 13.1033 10.4879 13.2205 10.364 13.311C10.1833 13.4415 9.96413 13.508 9.74131 13.4999C9.51849 13.4917 9.30477 13.4094 9.13404 13.266L6.37504 11.059C6.27248 10.9769 6.18709 10.8754 6.12374 10.7604C6.0604 10.6453 6.02034 10.5189 6.00585 10.3883C5.99137 10.2577 6.00274 10.1256 6.03932 9.99943C6.0759 9.87327 6.13697 9.75554 6.21904 9.65298C6.30112 9.55042 6.40259 9.46503 6.51767 9.40168C6.63275 9.33834 6.75918 9.29828 6.88974 9.28379C7.02029 9.2693 7.15243 9.28068 7.27859 9.31726C7.40476 9.35384 7.52248 9.41491 7.62504 9.49698L9.47804 10.98L11.681 7.01398C11.7449 6.8992 11.8307 6.79812 11.9336 6.7165C12.0364 6.63489 12.1544 6.57433 12.2807 6.5383C12.407 6.50227 12.5391 6.49147 12.6696 6.50652C12.8 6.52156 12.9263 6.56216 13.041 6.62598Z" fill="#2DA0F9"/>
</svg>
